<svg xmlns="http://www.w3.org/2000/svg" width="1000" height="1000" viewBox="0 0 1000 1000">
  <defs>
    <style>
      .cls-1, .cls-2 {
        fill: #020202;
      }

      .cls-1 {
        stroke: #000;
        stroke-width: 1px;
        fill-rule: evenodd;
      }

      .cls-2 {
        font-size: 120px;
        font-family: "Ink Free";
      }
    </style>
  </defs>
  <path id="K" class="cls-1" d="M833,737c-0.021,41.73-2.992,57.4-12,71-4.344,6.957-40.492-9-47.4-11.151s-12.953-4.094-18.141-5.828q-33.7-11.671-80.344-26.562-46.663-14.907-116.64-39.532-98.508-33.7-160.063-55.734-61.57-22.032-78.406-28.516,40.171-45.351,107.578-112.75,15.54-16.827,36.281-37.578,20.719-20.718,47.954-49.25Q584.384,363.333,631.7,301.787C663.227,260.755,690.812,227.344,715,185c14.688-25.906,20.219-36.094,28-59,7.781-22.891,9.461-28.41,12-50,2.469-21,.167-40.2-9-73-2.166,6.516-6.625,26.509-18,54-9.878,32.727-48.722,88.85-63,107-46.953,56.168-66.75,83.656-135,164-40.609,46.656-83.414,88.474-125.758,135.13S334.7,539.6,322.6,552.552V465.724a1652.209,1652.209,0,0,0-9.078-173.015q-9.071-86.181-23.969-141.907T260.4,95.068q-19.453,0-34.344,10.375C216.117,112.349,145,190.906,145,203l71.336-43.135q47.953,187.922,47.953,356.406,0,67.407-1.3,94.609-3.89,5.181-12.968,13.61a129.262,129.262,0,0,0-16.2,18.14,35.375,35.375,0,0,0-7.125,21.375,24.844,24.844,0,0,0,5.828,16.2q5.835,7.125,18.8,16.2v54.437q0,59.625-7.782,142.547C240.946,920.193,120,879.453,120,895c0,6.906,122.9,74.427,129.383,78.755a37.738,37.738,0,0,0,21.375,6.485q23.321,0,37.594-51.844,7.758-64.781,7.765-225.5,37.594,10.359,78.407,25.922t114.7,46.641l35,15.562q207.351,86.837,270.859,86.828c6.031,0,15.331-4.566,23.914-9.849,9.1-5.6,22.943-22.349,16-65Z"/>
  <text id="Evin" class="cls-2" transform="matrix(1.837, -0.063, 0.063, 1.837, 421.226, 672.872)">Evin</text>
</svg>
